0
SECTION
2
HEADER
9
$INSUNITS
70
4
9
$ACADVER
1
AC1014
9
$HANDSEED
5
FFFF
0
ENDSEC
0
SECTION
2
TABLES
0
TABLE
2
VPORT
5
8
100
AcDbSymbolTable
0
ENDTAB
0
TABLE
2
LTYPE
5
5
100
AcDbSymbolTable
0
LTYPE
5
14
100
AcDbSymbolTableRecord
100
AcDbLinetypeTableRecord
2
BYBLOCK
70
0
0
LTYPE
5
15
100
AcDbSymbolTableRecord
100
AcDbLinetypeTableRecord
2
BYLAYER
70
0
0
ENDTAB
0
TABLE
2
LAYER
5
2
100
AcDbSymbolTable
70
2
0
LAYER
5
50
100
AcDbSymbolTableRecord
100
AcDbLayerTableRecord
2
0
70
0
6
CONTINUOUS
0
ENDTAB
0
TABLE
2
STYLE
5
3
100
AcDbSymbolTable
70
1
0
STYLE
5
11
100
AcDbSymbolTableRecord
100
AcDbTextStyleTableRecord
2
STANDARD
70
0
0
ENDTAB
0
TABLE
2
VIEW
5
6
100
AcDbSymbolTable
70
0
0
ENDTAB
0
TABLE
2
UCS
5
7
100
AcDbSymbolTable
70
0
0
ENDTAB
0
TABLE
2
APPID
5
9
100
AcDbSymbolTable
70
2
0
APPID
5
12
100
AcDbSymbolTableRecord
100
AcDbRegAppTableRecord
2
ACAD
70
0
0
ENDTAB
0
TABLE
2
DIMSTYLE
5
A
100
AcDbSymbolTable
70
1
0
ENDTAB
0
TABLE
2
BLOCK_RECORD
5
1
100
AcDbSymbolTable
70
1
0
BLOCK_RECORD
5
1F
100
AcDbSymbolTableRecord
100
AcDbBlockTableRecord
2
*MODEL_SPACE
0
BLOCK_RECORD
5
1B
100
AcDbSymbolTableRecord
100
AcDbBlockTableRecord
2
*PAPER_SPACE
0
ENDTAB
0
ENDSEC
0
SECTION
2
BLOCKS
0
BLOCK
5
20
100
AcDbEntity
100
AcDbBlockBegin
2
*MODEL_SPACE
0
ENDBLK
5
21
100
AcDbEntity
100
AcDbBlockEnd
0
BLOCK
5
1C
100
AcDbEntity
100
AcDbBlockBegin
2
*PAPER_SPACE
0
ENDBLK
5
1D
100
AcDbEntity
100
AcDbBlockEnd
0
ENDSEC
0
SECTION
2
ENTITIES
0
LWPOLYLINE
5
100
100
AcDbEntity
8
0
100
AcDbPolyline
90
76
70
1
43
0.0
10
6.0000000000000142
20
12.699999999999987
10
0
20
12.699999999999987
10
0
20
6.0000000000000142
10
31.400000000000006
20
6.0000000000000142
10
31.400000000000006
20
0
10
88.900000000000006
20
0
10
88.900000000000006
20
6.0000000000000142
10
101.59999999999999
20
6.0000000000000142
10
101.59999999999999
20
0
10
165.10000000000002
20
0
10
165.10000000000002
20
6.0000000000000142
10
190.5
20
6.0000000000000142
10
190.5
20
0
10
254.00000000000003
20
0
10
254.00000000000003
20
6.0000000000000142
10
266.70000000000005
20
6.0000000000000142
10
266.70000000000005
20
0
10
324.20000000000005
20
0
10
324.20000000000005
20
6.0000000000000142
10
355.60000000000002
20
6.0000000000000142
10
355.60000000000002
20
12.700000000000005
10
349.60000000000002
20
12.700000000000005
10
349.60000000000002
20
25.399999999999999
10
355.60000000000002
20
25.399999999999999
10
355.60000000000002
20
50.799999999999997
10
349.60000000000002
20
50.799999999999997
10
349.60000000000002
20
63.5
10
355.60000000000002
20
63.5
10
355.60000000000002
20
88.900000000000006
10
349.60000000000002
20
88.900000000000006
10
349.60000000000002
20
114.3
10
355.60000000000002
20
114.3
10
355.60000000000002
20
139.70000000000002
10
349.60000000000002
20
139.70000000000002
10
349.60000000000002
20
152.40000000000001
10
355.60000000000002
20
152.40000000000001
10
355.60000000000002
20
177.80000000000001
10
349.60000000000002
20
177.80000000000001
10
349.60000000000002
20
190.5
10
355.60000000000002
20
190.5
10
355.60000000000002
20
197.19999999999999
10
324.20000000000005
20
197.19999999999999
10
324.20000000000005
20
203.19999999999999
10
266.70000000000005
20
203.19999999999999
10
266.70000000000005
20
197.19999999999999
10
254.00000000000003
20
197.19999999999999
10
254.00000000000003
20
203.19999999999999
10
190.5
20
203.19999999999999
10
190.5
20
197.19999999999999
10
165.10000000000002
20
197.19999999999999
10
165.10000000000002
20
203.19999999999999
10
101.59999999999999
20
203.19999999999999
10
101.59999999999999
20
197.19999999999999
10
88.900000000000006
20
197.19999999999999
10
88.900000000000006
20
203.19999999999999
10
31.400000000000006
20
203.19999999999999
10
31.400000000000006
20
197.19999999999999
10
0
20
197.19999999999999
10
0
20
190.49999999999997
10
6.0000000000000142
20
190.49999999999997
10
6.0000000000000142
20
177.80000000000001
10
0
20
177.80000000000001
10
0
20
152.39999999999998
10
6.0000000000000142
20
152.39999999999998
10
6.0000000000000142
20
139.69999999999999
10
0
20
139.69999999999999
10
0
20
114.29999999999998
10
6.0000000000000142
20
114.29999999999998
10
6.0000000000000142
20
88.899999999999991
10
0
20
88.899999999999991
10
0
20
63.499999999999979
10
6.0000000000000142
20
63.499999999999979
10
6.0000000000000142
20
50.799999999999983
10
0
20
50.799999999999983
10
0
20
25.399999999999984
10
6.0000000000000142
20
25.399999999999984
0
CIRCLE
5
101
100
AcDbEntity
8
0
100
AcDbCircle
10
245
20
93
30
0
40
1.6000000000000014
210
0
220
-0
230
1
0
CIRCLE
5
102
100
AcDbEntity
8
0
100
AcDbCircle
10
245
20
114.99999999999997
30
0
40
1.6000000000000014
210
0
220
0
230
1
0
CIRCLE
5
103
100
AcDbEntity
8
0
100
AcDbCircle
10
276.71199999999999
20
101.59999999999999
30
0
40
19.050000000000011
210
0
220
0
230
1
0
CIRCLE
5
104
100
AcDbEntity
8
0
100
AcDbCircle
10
19.000000283122063
20
176.00000262260437
30
0
40
1.5999999999999925
210
0
220
-0
230
1
0
CIRCLE
5
105
100
AcDbEntity
8
0
100
AcDbCircle
10
32.135455669899223
20
19.524302007926764
30
0
40
1.599999999999997
210
0
220
-0
230
1
0
CIRCLE
5
106
100
AcDbEntity
8
0
100
AcDbCircle
10
19.000000283122063
20
27.199997377395633
30
0
40
1.5999999999999925
210
0
220
-0
230
1
0
CIRCLE
5
107
100
AcDbEntity
8
0
100
AcDbCircle
10
17.794246984276405
20
13.75891698932783
30
0
40
1.6000000000000125
210
0
220
-0
230
1
0
CIRCLE
5
108
100
AcDbEntity
8
0
100
AcDbCircle
10
32.135455669899223
20
183.67569799207325
30
0
40
1.599999999999997
210
0
220
-0
230
1
0
CIRCLE
5
109
100
AcDbEntity
8
0
100
AcDbCircle
10
17.794246984276405
20
189.44108301067217
30
0
40
1.6000000000000125
210
0
220
-0
230
1
0
CIRCLE
5
110
100
AcDbEntity
8
0
100
AcDbCircle
10
323.46454433010081
20
19.524302007926764
30
0
40
1.599999999999997
210
0
220
0
230
1
0
CIRCLE
5
111
100
AcDbEntity
8
0
100
AcDbCircle
10
336.59999971687796
20
27.199997377395633
30
0
40
1.5999999999999925
210
0
220
0
230
1
0
CIRCLE
5
112
100
AcDbEntity
8
0
100
AcDbCircle
10
337.80575301572361
20
13.75891698932783
30
0
40
1.6000000000000125
210
0
220
0
230
1
0
CIRCLE
5
113
100
AcDbEntity
8
0
100
AcDbCircle
10
323.46454433010081
20
183.67569799207325
30
0
40
1.599999999999997
210
0
220
0
230
1
0
CIRCLE
5
114
100
AcDbEntity
8
0
100
AcDbCircle
10
336.59999971687796
20
176.00000262260437
30
0
40
1.5999999999999925
210
0
220
0
230
1
0
CIRCLE
5
115
100
AcDbEntity
8
0
100
AcDbCircle
10
337.80575301572361
20
189.44108301067217
30
0
40
1.6000000000000125
210
0
220
0
230
1
0
CIRCLE
5
116
100
AcDbEntity
8
0
100
AcDbCircle
10
130.65000000000066
20
13.499999999999996
30
-2.55351295663786e-14
40
1.7500000000000071
210
-5.3344049231238744e-16
220
1.0099448391530188e-44
230
1
0
CIRCLE
5
117
100
AcDbEntity
8
0
100
AcDbCircle
10
222.9000000000002
20
98.500000000000526
30
4.8849813083506888e-14
40
1.7500000000000071
210
-1.0765799026668183e-15
220
2.0382523117451837e-44
230
1
0
CIRCLE
5
118
100
AcDbEntity
8
0
100
AcDbCircle
10
276.71199999999999
20
152.40000000000001
30
0
40
1.6000000000000014
210
0
220
0
230
1
0
CIRCLE
5
119
100
AcDbEntity
8
0
100
AcDbCircle
10
78.888000000000019
20
50.799999999999997
30
0
40
1.6000000000000014
210
0
220
0
230
1
0
CIRCLE
5
120
100
AcDbEntity
8
0
100
AcDbCircle
10
276.71199999999999
20
50.799999999999997
30
0
40
1.6000000000000014
210
0
220
0
230
1
0
CIRCLE
5
121
100
AcDbEntity
8
0
100
AcDbCircle
10
78.888000000000019
20
152.40000000000001
30
0
40
1.6000000000000014
210
0
220
0
230
1
0
ENDSEC
0
SECTION
2
OBJECTS
0
DICTIONARY
5
C
100
AcDbDictionary
3
ACAD_GROUP
350
D
3
ACAD_MLINESTYLE
350
17
0
DICTIONARY
5
D
100
AcDbDictionary
0
DICTIONARY
5
1A
330
C
100
AcDbDictionary
0
DICTIONARY
5
17
100
AcDbDictionary
0
ENDSEC
0
EOF
